<svg width="144" height="21" viewBox="0 0 144 21" fill="none" xmlns="http://www.w3.org/2000/svg">
<g clip-path="url(#clip0_3560_56758)">
<path d="M45.79 9.85553C45.79 5.52671 48.8852 2.37024 53.1113 2.37024C57.3374 2.37024 60.4325 5.52671 60.4325 9.85553C60.4325 14.1843 57.3374 17.3408 53.1113 17.3408C48.8852 17.3408 45.79 14.1843 45.79 9.85553ZM57.9657 9.85553C57.9657 6.76186 55.9365 4.50324 53.1136 4.50324C50.2908 4.50324 48.2615 6.76186 48.2615 9.85553C48.2615 12.9492 50.2908 15.1869 53.1136 15.1869C55.9365 15.1869 57.9657 12.9492 57.9657 9.85553Z" fill="#151B1D"/>
<path d="M61.7334 6.63625H64.014V7.97374C64.6005 7.11542 65.8339 6.46877 67.2976 6.46877C70.4137 6.46877 72.2545 8.72738 72.2545 11.9048C72.2545 15.0822 70.3299 17.3408 67.172 17.3408C65.8967 17.3408 64.661 16.7965 64.014 15.9615V20.9788H61.7334V6.63625ZM69.9739 11.9048C69.9739 9.81366 68.7614 8.45523 66.9206 8.45523C65.0799 8.45523 63.8674 9.81366 63.8674 11.9048C63.8674 13.9959 65.0799 15.3544 66.9206 15.3544C68.7614 15.3544 69.9739 13.975 69.9739 11.9048Z" fill="#151B1D"/>
<path d="M78.0305 6.46877C81.4188 6.46877 83.2177 8.93673 83.2177 11.507C83.2177 11.8211 83.1968 12.2607 83.1759 12.4468H75.1216C75.331 14.2658 76.5016 15.3939 78.1748 15.3939C79.5548 15.3939 80.5392 14.7449 80.8115 13.5958L82.9664 14.1401C82.4009 16.1685 80.602 17.3385 78.1352 17.3385C74.7888 17.3385 72.8852 14.7449 72.8852 11.9025C72.8852 9.06001 74.6841 6.46645 78.0305 6.46645V6.46877ZM80.7905 10.7138C80.6439 9.29262 79.7037 8.26682 78.0305 8.26682C76.5877 8.26682 75.5614 9.14608 75.2263 10.7138H80.7905Z" fill="#151B1D"/>
<path d="M84.4046 6.63625H86.6852V8.39243C87.3973 7.26429 88.6098 6.46877 90.1573 6.46877C92.3961 6.46877 93.9646 7.9528 93.9646 10.2324V17.1733H91.684V10.7534C91.684 9.43683 90.8671 8.51571 89.529 8.51571C87.7511 8.51571 86.6852 10.0207 86.6852 12.5514V17.1733H84.4046V6.63625Z" fill="#151B1D"/>
<path d="M95.8472 2.53772H101.411C104.132 2.53772 105.973 3.89614 105.973 6.30129C105.973 7.65972 105.051 8.74832 104.132 9.16468C105.554 9.68805 106.664 10.879 106.664 12.8655C106.664 15.5637 104.718 17.1733 101.665 17.1733H95.8496V2.53772H95.8472ZM103.629 6.46877C103.629 5.21502 102.833 4.54511 101.244 4.54511H98.2954V8.3715H101.265C102.833 8.3715 103.629 7.70159 103.629 6.46877ZM104.276 12.7631C104.276 11.2791 103.336 10.4836 101.37 10.4836H98.2954V15.0217H101.37C103.336 15.0217 104.276 14.2471 104.276 12.7631Z" fill="#151B1D"/>
<path d="M107.967 2.37257H110.248V17.1757H107.967V2.37257Z" fill="#151B1D"/>
<path d="M111.409 11.9048C111.409 8.74832 113.669 6.46877 116.848 6.46877C120.026 6.46877 122.286 8.74832 122.286 11.9048C122.286 15.0613 120.005 17.3408 116.848 17.3408C113.69 17.3408 111.409 15.0613 111.409 11.9048ZM119.985 11.9048C119.985 9.87646 118.709 8.45523 116.848 8.45523C114.986 8.45523 113.711 9.87646 113.711 11.9048C113.711 13.9331 114.965 15.3544 116.848 15.3544C118.73 15.3544 119.985 13.9331 119.985 11.9048Z" fill="#151B1D"/>
<path d="M122.849 11.9048C122.849 8.66458 124.983 6.46877 128.141 6.46877C130.736 6.46877 132.598 7.84813 132.951 10.023L130.734 10.4626C130.524 9.27168 129.542 8.45523 128.202 8.45523C126.382 8.45523 125.211 9.81366 125.211 11.9048C125.211 13.9959 126.403 15.3544 128.202 15.3544C129.54 15.3544 130.482 14.6216 130.734 13.3888L132.972 13.8285C132.533 16.0243 130.713 17.3408 128.141 17.3408C124.983 17.3408 122.849 15.145 122.849 11.9048Z" fill="#151B1D"/>
<path d="M134.064 17.1757V2.37257H136.365V10.6115L140.717 6.63857H143.666L139.293 10.7999L143.999 17.178H141.215L137.68 12.3281L136.363 13.561V17.178H134.062L134.064 17.1757Z" fill="#151B1D"/>
<path d="M10.0008 2.39793C14.192 2.39793 17.6001 5.80674 17.6001 9.99371C17.6001 14.1807 14.1897 17.5895 10.0008 17.5895C5.81182 17.5895 2.39905 14.183 2.39905 9.99606C2.39905 5.80909 5.80947 2.39793 10.0008 2.39793ZM10.0008 0C4.47823 0 0 4.47613 0 9.99606C0 15.516 4.47823 19.9921 10.0008 19.9921C15.5233 19.9921 20.0015 15.516 20.0015 9.99606C20.0015 4.47613 15.5233 0 10.0008 0Z" fill="#151B1D"/>
<path d="M36.2351 2.39793V17.5918H21.034V2.39793H36.2351ZM38.6341 0H18.635V19.9898H38.6341V0Z" fill="#151B1D"/>
</g>
<defs>
<clipPath id="clip0_3560_56758">
<rect width="144" height="20.9811" fill="white"/>
</clipPath>
</defs>
</svg>
